<svg xmlns="http://www.w3.org/2000/svg" height="800" width="800" viewBox="0 0 268.069 268.069" xmlns:v="https://vecta.io/nano"><style><![CDATA[.B{fill:#1d1d1b}.C{fill:#ccecf9}]]></style><path d="M224.012 93.028c2.845 22.327 10.235 77.775-26.234 77.038-.443 0-.776-.147-1.072-.368.813 8.805 1.035 17.611.222 26.49-3.99 43.916-32.035 70.738-76.484 71.843-42.898 1.068-76.669-20.521-77.593-65.138-1.256-59.317 42.307-131.749-1.071-184.066-.406-.479-.369-1.068-.111-1.51.037-.184.111-.368.222-.516-.074-.184-.148-.405-.111-.589C44.403 2.58 99.309 1.253 111.613.553c17.588-.995 66.065-2.874 74.822 17.316.443 1.032-.111 1.953-.887 2.321.406.553.517 1.253.111 2.026-5.099 9.211-7.057 20.227-7.279 31.869 10.161-5.269 21.578-4.716 31.185 2.653 11.195 8.585 12.784 23.322 14.447 36.29zm-26.234 73.391c30.557.184 25.236-43.216 23.573-62.927-2.18-25.569-8.942-57.069-43.009-47.195 0 4.163.259 8.4.628 12.637 28.488-18.348 54.02 73.464 16.442 89.933.369 2.689.776 5.379 1.035 8.068.296-.295.74-.516 1.331-.516zm-2.882-11.311c14.706-7.442 17.329-22.621 15.851-37.874-1.182-12.011-7.131-56.59-31.555-46.238.48 4.79 1.145 9.579 1.921 14.295.111.258.148.553.148.81 2.106 12.6 4.951 24.795 7.094 35.074 2.292 11.238 4.767 22.549 6.541 33.933zm-6.688 63.627c8.424-25.016 5.025-52.059.185-77.333-3.325-17.242-7.168-34.3-9.718-51.653-29.781 23.579-85.906 19.49-115.318-3.168-1.108 15.621-4.286 31.427-7.316 46.385-5.358 26.195-12.119 53.68-8.683 80.575 4.36 34.558 33.993 49.406 66.434 50.585 33.403 1.215 63.405-12.527 74.416-45.391zm-5.542-200.239c.037-.074.111-.037.148-.074-10.383-16.137-52.135-14.921-68.023-14.221-12.859.552-25.754 2.026-38.501 4.016-6.503 1.031-29.042 2.542-32.441 8.511 20.063 13.042 43.046 17.279 66.767 17.721 23.166.405 52.91-1.474 72.05-15.953zm-5.395 68.343c.111-.074.222-.111.37-.147-28.451-23.948-83.062-17.648-114.062-2.211-.037.037-.037 0-.074 0v.295c33.07 19.01 80.956 24.168 113.766 2.063zm.37-4.9l-.776-6.226c-1.7-17.169-3.732-35.074 3.141-51.101-19.177 12.563-47.406 14.074-69.39 13.595-21.172-.479-44.302-3.389-62.222-15.253C61.4 40.491 64.578 61.086 63.617 82.197c18.659-11.679 40.311-14.184 62-14.111 18.77.037 37.54 1.694 52.024 13.853z" class="B"/><path d="M221.351 103.491c1.663 19.711 6.983 63.111-23.573 62.927-.591 0-1.035.221-1.33.516-.259-2.689-.665-5.379-1.035-8.068 37.577-16.469 12.045-108.281-16.442-89.933-.37-4.237-.628-8.474-.628-12.637 34.067-9.874 40.828 21.627 43.008 47.195z" class="C"/><path d="M189.243 187.935c.776 3.021.961 5.932.554 9.026-.185 1.253-2.143 1.326-2.032 0 .222-2.837.074-5.711-.406-8.474-.259-1.252 1.588-1.768 1.884-.552z" class="B"/><path d="M188.393 141.403c4.84 25.274 8.24 52.317-.185 77.333-11.011 32.864-41.013 46.606-74.415 45.39-32.441-1.179-62.074-16.027-66.434-50.585-3.436-26.895 3.325-54.38 8.683-80.575 3.03-14.958 6.207-30.764 7.316-46.385 29.412 22.658 85.537 26.748 115.318 3.168 2.549 17.353 6.392 34.411 9.717 51.654zm1.404 55.558c.406-3.095.222-6.005-.554-9.026-.296-1.216-2.143-.7-1.884.553.48 2.763.628 5.637.406 8.474-.111 1.325 1.847 1.252 2.032-.001zm-12.747-51.837c.887-2.763-.074-5.637-2.328-7.405-.85-.7-2.069.442-1.256 1.216 1.626 1.474 2.254 3.574 1.884 5.711-.185 1.104 1.33 1.546 1.7.478zm-2.919.589c1.663-3.205-1.33-6.926-4.766-6.889-.924 0-.924 1.437 0 1.474 2.549.074 3.88 2.579 3.51 4.9-.148.699.849 1.252 1.256.515zm-.813 93.138c.037-.7-1.072-.995-1.367-.368-1.663 3.684-3.325 6.963-6.688 9.321-1.035.737-.037 2.432.998 1.732 3.547-2.506 6.65-6.227 7.057-10.685zm-4.36.074c.628-.737-.406-1.805-1.072-1.068-1.219 1.363-2.439 2.726-3.584 4.163-.554.7-1.367 1.363-1.109 2.321a.6.6 0 0 0 .591.442c.296 0 .443-.074.665-.295.148-.111.222-.332.148-.516.037-.037.037-.037.074-.111a12.89 12.89 0 0 0 .702-.737c.406-.442.813-.847 1.182-1.29.814-.956 1.59-1.914 2.403-2.909zm-2.956-82.97c1.219-3.058 4.397-8.326 2.402-11.605-1.7-2.763-6.762-4.274-9.644-5.195-4.175-1.363-9.496-3.095-13.967-2.469-9.57 1.326-10.826 15.548-11.861 22.953-.148 1.069.628 1.769 1.441 1.916 6.17 3.279 19.398 10.279 25.864 5.232 3.105-2.432 4.398-7.332 5.765-10.832zm-.887 45.833c.776-1.99.961-3.868.333-5.932-.222-.774-1.515-.663-1.441.184.185 1.805.074 3.574-.591 5.305-.37 1.069 1.33 1.511 1.699.443zm-3.141-2.985c.148-3.795-3.067-6.669-5.395-9.284-3.399-3.795-7.353-9.837-12.563-11.384-3.288-.958-6.17.295-8.868 2.174-4.212 2.984-9.976 7.442-12.563 11.974-5.173 9.174 7.279 20.558 13.265 26.121.259.258.554.332.813.368.148.479.628.847 1.219.553 6.911-3.243 23.723-11.311 24.092-20.522zm-44.56-12.01c.554-.81-.665-1.732-1.33-1.031a8.76 8.76 0 0 0-1.995 8.658c.222.737 1.589.663 1.478-.221-.37-2.727.221-5.159 1.847-7.406zm-1.256-2.985c.702-.332.222-1.584-.554-1.29-2.143.811-3.547 2.358-4.212 4.568-.259.884 1.071 1.216 1.33.368.591-1.73 1.773-2.909 3.436-3.646zm-1.663-58.432c.591-2.763-1.921-4.605-3.695-6.226-2.882-2.616-5.838-6.153-9.2-8.105-6.577-3.905-14.817 6.411-18.881 10.537-.443.442-.48.958-.296 1.437-.517.074-.961.553-.628 1.179 2.291 4.495 5.247 8.584 8.683 12.269 1.847 1.953 4.286 5.232 7.39 4.826 3.067-.405 6.207-4.9 8.166-6.779 2.401-2.285 7.759-5.638 8.461-9.138zm-9.865 98.075c1.293-2.763 4.101-6.926 2.254-10.058-1.884-3.132-7.87-4.163-10.974-5.121-4.138-1.29-10.346-3.868-14.706-2.616-3.03.884-4.545 3.574-5.727 6.226-2.069 4.716-4.951 11.274-4.582 16.505.074.59.369.995.776 1.253a1.14 1.14 0 0 0 .369.553c5.875 3.611 18.881 11.642 25.458 6.263 3.621-2.947 5.21-8.879 7.132-13.005zm.96 19.379c.443-.7-.628-1.289-1.072-.626-.924 1.363-2.291 2.247-3.99 2.432-.628.037-.665.995 0 .995 2.18-.001 3.954-.922 5.062-2.801zm-2.18-5.195c.185-.589-.628-1.068-1.035-.589-1.256 1.437-2.586 2.579-4.619 2.579-.813.037-.776 1.216 0 1.29 2.403.22 4.915-.922 5.654-3.28zm-3.51-88.053c.776-.516.111-1.768-.739-1.253-2.439 1.437-5.542 1.105-7.538-.995-.591-.626-1.478.295-.961.958 2.255 2.726 6.319 3.353 9.238 1.29zm-3.473-4.79c.739-.479.074-1.658-.702-1.179-1.589.921-3.473.663-4.729-.663-.591-.626-1.515.332-.961.958 1.662 1.879 4.286 2.247 6.392.884zm-35.102 49.443c.591 1.179 2.217.147 1.737-.995-1.108-2.579-1.035-5.305-.369-7.995.296-1.069-1.367-1.842-1.811-.774-1.404 3.243-1.109 6.632.443 9.764zm1.035-54.675c.259-.811-1.035-1.363-1.367-.589-1.256 2.947-2.328 5.895-3.289 8.953-.222.737.998 1.29 1.293.553 1.257-2.948 2.402-5.896 3.363-8.917zm-3.547-2.247c.185-.7-.924-1.216-1.219-.516-1.958 4.126-2.956 8.621-3.325 13.153-.074.663 1.071.847 1.219.147.812-4.384 2.032-8.547 3.325-12.784z" fill="#ffed33"/><path d="M182.814 18.422c-.037.037-.111 0-.148.074-19.14 14.479-48.883 16.358-72.051 15.953-23.721-.442-46.704-4.679-66.767-17.721 3.399-5.968 25.938-7.479 32.441-8.511 12.747-1.99 25.643-3.463 38.501-4.016 15.889-.7 57.641-1.916 68.024 14.221zm-11.233-2.8c.702.59 1.663-.332 1.035-1.032-2.586-2.874-5.949-4.826-9.496-6.226-.591-.221-.961.737-.443.995 3.325 1.658 6.133 3.868 8.904 6.263zm-3.916.442c.628.295 1.404-.553.776-1.032-4.766-3.721-10.604-5.195-16.627-5.342-.961-.037-.924 1.4 0 1.437 5.727.442 10.752 2.395 15.851 4.937zm-96.4 6.595c.924.221 1.33-1.179.369-1.437-3.141-.847-6.207-1.953-9.089-3.5-.813-.405-1.515.774-.739 1.216 2.993 1.694 6.096 2.984 9.459 3.721zm-4.619 1.4c.924.295 1.293-1.105.369-1.437-3.289-1.326-6.503-3.058-9.459-5.084-.924-.626-1.737.847-.85 1.474 3.03 2.284 6.282 3.942 9.94 5.047z" class="C"/><path d="M177.641 86.691c-.148.037-.259.074-.37.147-32.811 22.105-80.697 16.948-113.766-2.063v-.295c.037 0 .037.037.074 0 31-15.436 85.611-21.736 114.062 2.211zm-24.571-4.752c.628.737 1.847-.221 1.293-.995-2.069-3.132-5.727-4.753-9.459-4.826-.813-.037-.776 1.105 0 1.179 3.399.331 5.986 2.099 8.166 4.642zm-61.483 7.405c.813.111 1.182-1.032.369-1.253-2.66-.59-5.284-1.437-7.722-2.653-.776-.368-1.441.737-.665 1.142 2.549 1.364 5.172 2.322 8.018 2.764zm-3.991 2.321c.591.074.739-.958.148-1.068-3.732-.774-7.279-2.137-10.457-4.163-.591-.368-1.071.479-.554.884 3.289 2.357 6.836 3.794 10.863 4.347z" fill="#ffed33"/><path d="M174.722 137.718c2.254 1.768 3.214 4.642 2.328 7.405-.37 1.068-1.884.626-1.7-.479.37-2.137-.259-4.237-1.884-5.711-.813-.773.406-1.915 1.256-1.215z" class="B"/><path d="M176.865 75.712l.776 6.226c-14.484-12.158-33.254-13.816-52.024-13.853-21.689-.074-43.341 2.432-62 14.111.961-21.111-2.217-41.706-15.223-59.243 17.92 11.863 41.05 14.774 62.222 15.253 21.985.479 50.214-1.032 69.39-13.595-6.873 16.027-4.841 33.932-3.141 51.101zm-3.51-7.258c.111-4.163.185-8.253-.148-12.416-.074-.995-1.589-1.032-1.589 0-.074 4.163.259 8.29.665 12.416.074.7 1.035.7 1.072 0zm-3.141-14.258c.111-.958-1.441-1.142-1.663-.221-.665 2.91-.591 5.821-.074 8.769.185 1.105 1.884.626 1.7-.479-.406-2.69-.295-5.379.037-8.069zm-63.22-8.695c.998-.111 1.441-1.732.259-1.916-3.695-.626-7.39-.921-11.011-1.99-1.404-.405-1.958 1.695-.591 2.137 3.584 1.18 7.538 2.138 11.343 1.769zm-37.688 20.19c.369-3.279.665-7.111-.333-10.316-.259-.847-1.515-.7-1.552.184-.074 3.353.554 6.779.591 10.132.038.847 1.183.81 1.294 0z" class="C"/><path d="M169.364 138.824c3.436-.037 6.429 3.684 4.766 6.889-.406.737-1.404.184-1.256-.516.37-2.321-.961-4.826-3.51-4.9-.924-.037-.924-1.473 0-1.473zm3.843-82.786c.332 4.163.259 8.253.148 12.416-.037.7-.998.7-1.072 0-.406-4.126-.739-8.253-.665-12.416 0-1.031 1.515-.995 1.589 0zm-1.256 182.445c.296-.626 1.404-.332 1.367.368-.406 4.458-3.51 8.179-7.057 10.684-1.035.7-2.032-.995-.998-1.732 3.362-2.357 5.025-5.636 6.688-9.32zm.665-223.893c.628.7-.333 1.621-1.035 1.032-2.771-2.395-5.579-4.605-8.905-6.263-.517-.258-.148-1.216.443-.995 3.548 1.4 6.91 3.353 9.497 6.226zm-4.065 39.385c.222-.921 1.773-.737 1.663.221-.333 2.689-.443 5.379-.037 8.069.185 1.105-1.515 1.584-1.7.479-.517-2.948-.591-5.858.074-8.769zm-.665 183.881c.665-.737 1.7.332 1.072 1.068l-2.402 2.911-1.182 1.29a12.89 12.89 0 0 1-.702.737c-.037.074-.037.074-.074.111.074.184 0 .405-.148.516-.222.221-.369.295-.665.295s-.517-.184-.591-.442c-.259-.958.554-1.621 1.109-2.321l3.583-4.165zm.518-93.506c1.995 3.279-1.182 8.548-2.402 11.605-1.367 3.5-2.66 8.4-5.764 10.832-6.466 5.047-19.694-1.953-25.864-5.232-.813-.147-1.589-.847-1.441-1.916 1.035-7.405 2.291-21.627 11.861-22.953 4.471-.626 9.791 1.105 13.967 2.469 2.881.921 7.943 2.432 9.643 5.195zm-5.358 9.542c1.035-2.726 2.956-5.6 1.478-8.032-2.254-3.721-13.634-6.447-17.957-6.153-8.535.553-9.681 13.595-10.567 20.227 5.431 2.137 12.969 5.6 18.585 5.011 5.579-.553 6.909-7.037 8.461-11.053zm5.394-138.86c.628.479-.148 1.326-.776 1.032-5.099-2.542-10.124-4.495-15.851-4.937-.924-.037-.961-1.474 0-1.437 6.023.148 11.861 1.621 16.627 5.342zm-2.992 180.824c.628 2.063.443 3.942-.333 5.932-.37 1.068-2.069.626-1.7-.442.665-1.732.776-3.5.591-5.305-.073-.848 1.22-.959 1.442-.185z" class="B"/><path d="M164.524 145.86c1.478 2.432-.443 5.305-1.478 8.032-1.552 4.016-2.882 10.5-8.461 11.053-5.616.59-13.154-2.874-18.585-5.011.887-6.632 2.032-19.674 10.567-20.227 4.323-.294 15.703 2.432 17.957 6.153z" class="C"/><path d="M156.58 189.519c2.328 2.616 5.542 5.49 5.395 9.284-.369 9.211-17.181 17.279-24.091 20.521-.591.295-1.072-.074-1.219-.553-.259-.037-.554-.11-.813-.368-5.986-5.563-18.437-16.948-13.265-26.121 2.587-4.532 8.35-8.99 12.563-11.974 2.697-1.879 5.579-3.132 8.868-2.174 5.209 1.548 9.163 7.59 12.562 11.385zm-2.143 15.253c7.205-6.742-1.441-14.884-6.466-19.932-3.99-4.016-7.685-4.605-12.267-.884-2.18 1.768-6.872 4.937-8.092 7.479l-.739 11.458c1.404 1.99 2.882 3.905 4.434 5.784 2.143 2.616 4.397 5.084 6.54 7.737a1.32 1.32 0 0 1 .296.663c5.763-3.684 11.306-7.589 16.294-12.305z" class="B"/><path d="M147.971 184.84c5.025 5.047 13.671 13.19 6.466 19.932-4.988 4.716-10.531 8.621-16.294 12.306a1.32 1.32 0 0 0-.296-.663c-2.143-2.653-4.397-5.121-6.54-7.737-1.552-1.879-3.03-3.795-4.434-5.784l.739-11.458c1.219-2.542 5.912-5.711 8.092-7.479 4.581-3.722 8.276-3.133 12.267.883z" class="C"/><path d="M154.363 80.944c.554.774-.665 1.732-1.293.995-2.18-2.542-4.766-4.311-8.166-4.642-.776-.074-.813-1.216 0-1.179 3.732.073 7.39 1.694 9.459 4.826zm-38.279 104.817c.665-.7 1.884.221 1.33 1.031-1.626 2.247-2.217 4.679-1.848 7.405.111.884-1.256.958-1.478.221-.96-3.057-.184-6.336 1.996-8.657zm-.481-3.242c.776-.295 1.256.958.554 1.29-1.663.737-2.845 1.916-3.436 3.647-.259.847-1.589.516-1.33-.368.665-2.211 2.069-3.759 4.212-4.569zM110.8 119.15c1.773 1.621 4.286 3.463 3.695 6.226-.702 3.5-6.06 6.853-8.461 9.137-1.958 1.879-5.099 6.374-8.166 6.779-3.104.405-5.542-2.874-7.39-4.826-3.436-3.684-6.392-7.774-8.683-12.269-.333-.626.111-1.105.628-1.179-.185-.479-.148-.995.296-1.437 4.064-4.126 12.304-14.442 18.881-10.537 3.362 1.953 6.318 5.49 9.2 8.106zm-.998 7.405c1.737-3.168-.333-4.458-2.66-6.595-1.774-1.621-3.917-4.421-6.023-5.453-6.096-3.058-12.341 5.342-16.331 9.1-.333.332-.739.442-1.108.405 3.215 4.642 7.168 11.163 12.674 12.674 1.774 1.216 3.141.884 4.101-.995l3.399-3.353c1.699-1.657 4.803-3.72 5.948-5.783z" class="B"/><path d="M107.142 119.96c2.328 2.137 4.397 3.426 2.66 6.595-1.146 2.063-4.249 4.126-5.949 5.784l-3.399 3.353c-.961 1.879-2.328 2.21-4.101.995-5.505-1.51-9.459-8.032-12.674-12.674.369.037.776-.074 1.108-.405 3.991-3.758 10.235-12.158 16.331-9.1 2.107 1.031 4.251 3.831 6.024 5.452z" class="C"/><path d="M107.253 43.585c1.182.184.739 1.805-.259 1.916-3.806.368-7.759-.589-11.343-1.768-1.367-.442-.813-2.542.591-2.137 3.621 1.068 7.316 1.363 11.011 1.989zm-.37 169.808c1.847 3.132-.961 7.295-2.254 10.058-1.921 4.126-3.51 10.058-7.131 13.006-6.577 5.379-19.583-2.653-25.458-6.263-.185-.147-.296-.332-.369-.553-.407-.258-.702-.663-.776-1.253-.369-5.232 2.513-11.79 4.582-16.505 1.182-2.653 2.697-5.342 5.727-6.226 4.36-1.253 10.567 1.326 14.706 2.616 3.103.957 9.089 1.988 10.973 5.12zm-4.286 6.374c.813-6.779-4.286-7.221-8.683-8.548-2.512-.737-6.134-2.284-8.794-2.174-6.651.332-7.02 5.342-8.646 10.095-1.035 2.984-2.476 5.969-2.291 9.247a1.05 1.05 0 0 1-.074.59c5.062 2.247 11.159 5.305 16.516 5.563 5.801.295 6.392-2.616 8.313-6.779 1.036-2.247 3.364-5.563 3.659-7.994zm1.922 22.437c.443-.663 1.515-.074 1.072.626-1.108 1.879-2.882 2.8-5.062 2.8-.665 0-.628-.958 0-.995 1.699-.184 3.066-1.068 3.99-2.431zm-2.143-5.158c.406-.479 1.219 0 1.035.589-.739 2.358-3.252 3.5-5.653 3.279-.776-.074-.813-1.253 0-1.29 2.031.001 3.361-1.141 4.618-2.578z" class="B"/><path d="M93.914 211.219c4.397 1.326 9.496 1.768 8.683 8.548-.296 2.432-2.623 5.747-3.658 7.995-1.921 4.163-2.512 7.074-8.313 6.779-5.358-.258-11.454-3.316-16.516-5.563.074-.184.111-.368.074-.59-.185-3.279 1.256-6.263 2.291-9.247 1.626-4.753 1.995-9.763 8.646-10.095 2.66-.111 6.281 1.436 8.793 2.173z" class="C"/><path d="M99.161 148.329c.85-.516 1.515.737.739 1.253-2.919 2.063-6.983 1.437-9.237-1.289-.517-.663.369-1.584.961-.958 1.995 2.099 5.098 2.431 7.537.994zm-3.436-4.716c.776-.479 1.441.7.702 1.179-2.106 1.363-4.729.995-6.392-.884-.554-.626.369-1.584.961-.958 1.256 1.326 3.14 1.584 4.729.663zm-3.769-55.522c.813.221.443 1.363-.369 1.253-2.845-.442-5.468-1.4-8.018-2.763-.776-.405-.111-1.511.665-1.142 2.438 1.215 5.062 2.063 7.722 2.652zm-4.212 2.506c.591.11.443 1.142-.148 1.068-4.027-.553-7.575-1.99-10.863-4.347-.517-.405-.037-1.253.554-.884 3.178 2.026 6.725 3.389 10.457 4.163zm-16.11-69.375c.961.258.554 1.658-.369 1.437-3.362-.737-6.466-2.026-9.459-3.721-.776-.442-.074-1.621.739-1.216 2.882 1.547 5.948 2.653 9.089 3.5zm-2.66 34.153c.998 3.205.702 7.037.333 10.316-.111.811-1.256.847-1.293 0-.037-3.353-.665-6.779-.591-10.132.036-.884 1.292-1.031 1.551-.184zm-1.959-32.753c.924.332.554 1.732-.369 1.437a31.23 31.23 0 0 1-9.939-5.048c-.887-.626-.074-2.1.85-1.474 2.955 2.027 6.17 3.759 9.458 5.085zM63.062 193.24c.48 1.142-1.146 2.174-1.737.995-1.552-3.132-1.847-6.521-.443-9.763.443-1.068 2.106-.295 1.811.774-.666 2.689-.74 5.415.369 7.994zm-2.069-54.269c.333-.774 1.626-.221 1.367.589-.961 3.021-2.106 5.969-3.362 8.916-.296.737-1.515.184-1.293-.553l3.288-8.952zm-3.4-2.174c.296-.7 1.404-.184 1.219.516-1.293 4.237-2.513 8.4-3.325 12.784-.148.7-1.293.516-1.219-.147.37-4.532 1.367-9.026 3.325-13.153z" class="B"/></svg>